<?xml version="1.0" encoding="iso-8859-1"?>
<!-- Generator: Adobe Illustrator 18.0.0, SVG Export Plug-In . SVG Version: 6.00 Build 0)  -->
<!DOCTYPE svg PUBLIC "-//W3C//DTD SVG 1.1//EN" "http://www.w3.org/Graphics/SVG/1.1/DTD/svg11.dtd">
<svg version="1.1" id="Capa_1" xmlns="http://www.w3.org/2000/svg" xmlns:xlink="http://www.w3.org/1999/xlink" x="0px"
     y="0px"
     viewBox="0 0 455.731 455.731" style="enable-background:new 0 0 455.731 455.731;" xml:space="preserve">
<g>
 <path style="fill:#797979;" d=
         "m223.521985,151.586917c18.88513,0 37.477791,11.696274 37.477791,39.672749c0,25.799227 -21.983907,35.720926 -26.705189,45.043296c-3.544444,6.93442 -2.360641,16.678193 -12.099157,16.678193c-6.343788,0 -9.442565,-6.939102 -9.442565,-13.28824c0,-23.62666 25.813856,-28.973796 25.813856,-48.428566c0,-10.708318 -5.299257,-17.057456 -14.156884,-17.057456c-18.88513,0 -11.510737,26.183172 -25.813856,26.183172c-5.163467,0 -9.595763,-4.167207 -9.595763,-12.098948c-0.003482,-19.459453 16.517525,-36.704199 34.521767,-36.704199zm-0.734654,114.275122c6.629293,0 12.099157,7.332412 12.099157,16.275519c0,8.943108 -5.459418,16.275519 -12.099157,16.275519c-6.639739,0 -12.102638,-7.323047 -12.102638,-16.275519c0,-8.938425 5.4629,-16.275519 12.102638,-16.275519z"/>
</g>
    <g>
</g>
    <g>
</g>
    <g>
</g>
    <g>
</g>
    <g>
</g>
    <g>
</g>
    <g>
</g>
    <g>
</g>
    <g>
</g>
    <g>
</g>
    <g>
</g>
    <g>
</g>
    <g>
</g>
    <g>
</g>
    <g>
</g>
</svg>
